<svg xmlns="http://www.w3.org/2000/svg" version="1.1" viewBox="0 0 64 80" x="0px" y="0px"><path d="m32 8c-13.248912 0-24 10.751088-24 24 0.0093027 5.6554597 2.0148047 11.126707 5.6640625 15.447266l0.3515625 0.41601563 33.865234-33.865234-0.41601563-0.3515625c-4.3277878-3.6467547-9.8054659-5.6464338-15.464844-5.6464844zm0 1c5.2386623 4.5322e-5 10.291506 1.8244884 14.369141 5.0957031l-32.255859 32.255859c-3.2737128-4.0709554-5.1046702-9.1165724-5.1132812-14.351562 0-4.2479242 1.1545152-8.222969 3.1601562-11.636719l1.9472656 1.9472656v2.828125l8.2773437 8.2773437c0.77735185 0.77735985 2.0507732 0.77735985 2.828125 0l7.0722656-7.0703125c0.77735185-0.77735982 0.77735185-2.0507652 0-2.828125l-1.4492188-1.4511719c0.63867465-0.96945223 0.53125359-2.2929564-0.3203125-3.1445312l-5.0957031-5.0976562h-5.65625l-0.78515626-0.78515625c3.7021105-2.5466336 8.1854807-4.0390628 13.021484-4.0390625zm-13.84375 4.6308594 1.1933594 1.1933594h5.65625l4.8027344 4.8046875c0.59371416 0.59372024 0.59371417 1.5273734 0 2.1210938l-4.5957031 4.5957031-0.35351562-0.35351562c-0.41133957-0.41134378-0.57606395-0.78383564-0.60546875-1.0683594-0.0294048-0.28452365 0.0530293-0.50029295 0.25195313-0.69921874l2.6933594-2.6933594c-0.32084476-0.96322664-0.64269111-1.9258824-0.96484375-2.8886719l-0.94726562 0.31445313c0.25434509 0.76840992 0.51127238 1.53693 0.76757812 2.3046875l-0.48828125 0.48828125-0.70703125-0.70703125 0.35351562-0.35351563-0.70703124-0.70703124-7.0703125 7.0703125-2.328125-2.328125v-2.828125l-2.40625-2.40625c1.4654841-2.2569224 3.3122245-4.2423557 5.4550781-5.859375zm31.828125 2.5058594-0.38476562 0.38476563-33.480469 33.480469 0.41601563 0.3515625c4.3277878 3.6467547 9.8054646 5.6464354 15.464844 5.6464844 13.248912 0 24-10.751088 24-24-0.009303-5.6554597-2.0148047-11.126707-5.6640625-15.447266l-0.3515625-0.41601563zm-0.09765625 1.5117188c3.273713 4.0709554 5.1046702 9.1165724 5.1132812 14.351562 0 12.708472-10.291528 23-23 23-5.2386623-4.532e-5 -10.291506-1.8244884-14.369141-5.0957031l14.40625-14.40625c-0.01403661 0.16690642-0.03710938 0.33137622-0.03710938 0.50195312 0 3.6913345 2.8732946 6.7165177 6.5 6.9746094v4.0253906h-2.5v1h2.5v3h1v-3h2.5v-1h-2.5v-4.0253906c3.6267054-0.25809165 6.5-3.2832749 6.5-6.9746094 0-3.8600709-3.1399291-7-7-7-0.1705769 0-0.3350467 0.02307277-0.50195312 0.03710938l11.388672-11.388672zm-25.734375 4.1015625 0.70703125 0.70703125-1.0605469 1.0605469c-0.25097982 0.25098241-0.41639002 0.57223367-0.49414062 0.91992188l-0.91992188-0.91992188 1.7675781-1.7675781zm6.0097656 1.0605469 1.4160156 1.4140625c0.39784758 0.39785162 0.39784758 1.0162108 0 1.4140625l-1.0625 1.0605469-2.1210938-2.1210938 1.7675781-1.7675781zm-8.484375 1.4140625 5.65625 5.65625-1.4140625 1.4140625-5.65625-5.65625 1.4140625-1.4140625zm6.0097656 1.0605469 2.1210938 2.1210938-1.7675781 1.7675781-2.1210937-2.1210937 1.7675781-1.7675781zm-8.1308594 1.0605469 5.65625 5.65625-0.70703124 0.70703126c-0.39784757 0.39785166-1.016215 0.39785166-1.4140625 0l-4.9492188-4.9492188 1.4140625-1.4140625zm19.443359 3.6542969c3.3196308 0 6 2.6803692 6 6s-2.6803692 6-6 6-6-2.6803692-6-6c0-0.59719663 0.08996222-1.1730438 0.25195312-1.7167969l4.03125-4.03125c0.5437531-0.1619909 1.1196002-0.25195312 1.7167969-0.25195312z" fill="#000000" style="font-feature-settings:normal;font-variant-alternates:normal;font-variant-caps:normal;font-variant-ligatures:normal;font-variant-numeric:normal;font-variant-position:normal;isolation:auto;mix-blend-mode:normal;paint-order:fill markers stroke;shape-padding:0;text-decoration-color:#000000;text-decoration-line:none;text-decoration-style:solid;text-indent:0;text-orientation:mixed;text-transform:none;white-space:normal;"/><path d="m32 4c-15.458051 0-28 12.541949-28 28s12.541949 28 28 28 28-12.541949 28-28-12.541949-28-28-28zm0 1c14.917611 0 27 12.082389 27 27s-12.082389 27-27 27-27-12.082389-27-27 12.082389-27 27-27z" color="#000000" color-rendering="auto" dominant-baseline="auto" fill="#000000" image-rendering="auto" shape-rendering="auto" solid-color="#000000" style="font-feature-settings:normal;font-variant-alternates:normal;font-variant-caps:normal;font-variant-ligatures:normal;font-variant-numeric:normal;font-variant-position:normal;isolation:auto;mix-blend-mode:normal;paint-order:fill markers stroke;shape-padding:0;text-decoration-color:#000000;text-decoration-line:none;text-decoration-style:solid;text-indent:0;text-orientation:mixed;text-transform:none;white-space:normal;"/><text x="0" y="79" fill="#000000" font-size="5px" font-weight="bold" font-family="'Helvetica Neue', Helvetica, Arial-Unicode, Arial, Sans-serif">Created by Frey Wazza</text><text x="0" y="84" fill="#000000" font-size="5px" font-weight="bold" font-family="'Helvetica Neue', Helvetica, Arial-Unicode, Arial, Sans-serif">from the Noun Project</text></svg>